<svg xmlns="http://www.w3.org/2000/svg" width="27" height="27" fill="none"><path fill="#1373EB" d="M19.88 12.762a7.127 7.127 0 0 0-7.118 7.119A7.127 7.127 0 0 0 19.88 27 7.127 7.127 0 0 0 27 19.88a7.127 7.127 0 0 0-7.12-7.118zm3.165 7.91H19.88a.79.79 0 0 1-.791-.791v-3.164a.79.79 0 1 1 1.582 0v2.373h2.373a.79.79 0 1 1 0 1.582zm2.32-18.246a.783.783 0 0 0-.79-.791h-3.956v2.373a.783.783 0 0 1-.79.79.783.783 0 0 1-.792-.79V1.635h-3.164v2.373a.783.783 0 0 1-.791.79.783.783 0 0 1-.791-.79V1.635h-3.164v2.373a.783.783 0 0 1-.791.79.783.783 0 0 1-.791-.79V1.635H6.38v2.373a.783.783 0 0 1-.791.79.783.783 0 0 1-.791-.79V1.635H.79a.783.783 0 0 0-.791.79v3.956h25.365V2.426z"/><path fill="#1373EB" d="M11.918 15.873h.19a8.73 8.73 0 0 1 1.013-1.582h-1.203a.79.79 0 1 1 0-1.582H13.5c.324 0 .6.196.723.474a8.659 8.659 0 0 1 5.605-2.056h-1.582a.79.79 0 1 1 0-1.582h1.582a.79.79 0 1 1 0 1.582c2.102 0 4.032.75 5.537 1.994V7.963H0v15.03a.79.79 0 0 0 .791.79h11.296a8.64 8.64 0 0 1-.96-3.955c0-.87.156-1.7.395-2.494a.78.78 0 0 1-.395-.67.79.79 0 0 1 .791-.791zm0-6.328H13.5a.79.79 0 1 1 0 1.582h-1.582a.79.79 0 1 1 0-1.582zM7.172 20.619H5.59a.79.79 0 1 1 0-1.582h1.582a.79.79 0 1 1 0 1.582zm0-3.164H5.59a.79.79 0 1 1 0-1.582h1.582a.79.79 0 1 1 0 1.582zm0-3.164H5.59a.79.79 0 1 1 0-1.582h1.582a.79.79 0 1 1 0 1.582zm0-3.164H5.59a.79.79 0 1 1 0-1.582h1.582a.79.79 0 1 1 0 1.582zM6.38.791A.783.783 0 0 0 5.59 0a.783.783 0 0 0-.791.791v.844H6.38V.79zm4.747 0A.783.783 0 0 0 10.336 0a.783.783 0 0 0-.791.791v.844h1.582V.79zm4.746 0A.783.783 0 0 0 15.082 0a.783.783 0 0 0-.791.791v.844h1.582V.79zm4.747 0A.783.783 0 0 0 19.827 0a.783.783 0 0 0-.79.791v.844h1.581V.79z"/></svg>