<svg xmlns="http://www.w3.org/2000/svg" width="28" height="28" fill="none"><path fill="#1373EB" d="m8.01 27.5 1.423-.002h9.176l1.422.002c4.246 0 7.49-.195 7.49-4.18 0-4.173-3.552-7.597-8.09-7.97-.036 1.46-5.408 5.062-5.408 5.062s-5.374-3.602-5.41-5.061c-4.537.372-8.091 3.796-8.091 7.968 0 3.986 3.243 4.181 7.488 4.181zm10.02-5.443c0-.119.12-.214.268-.214h1.452V20.54a.24.24 0 0 1 .238-.24h1.432a.24.24 0 0 1 .238.24v1.303h1.451c.147 0 .267.096.267.214v1.286c0 .119-.119.214-.267.214h-1.451v1.303a.24.24 0 0 1-.239.24h-1.431a.239.239 0 0 1-.24-.24v-1.303h-1.45c-.148 0-.268-.096-.268-.214v-1.286z"/><path fill="#1373EB" d="M14.024 16.398c4.104 0 7.43-5.542 7.43-9.227 0-3.684-3.326-6.671-7.43-6.671-4.103 0-7.43 2.987-7.43 6.671 0 3.685 3.327 9.227 7.43 9.227z"/></svg>