<svg xmlns="http://www.w3.org/2000/svg" width="27" height="27" fill="none"><path fill="#1373EB" d="M27 7.714V4.821a2.893 2.893 0 0 0-2.893-2.892H20.25V.964a.964.964 0 0 0-1.929 0v.965H8.68V.964a.964.964 0 1 0-1.929 0v.965H2.893A2.893 2.893 0 0 0 0 4.82v2.893h27zM0 9.643v14.464A2.893 2.893 0 0 0 2.893 27h21.214A2.893 2.893 0 0 0 27 24.107V9.643H0zm18.948 5.553-6.75 5.786a.964.964 0 0 1-1.308-.051l-2.893-2.893a.964.964 0 0 1 1.363-1.364l2.263 2.263 6.075-5.208a.963.963 0 0 1 1.496 1.17.964.964 0 0 1-.243.295l-.003.002z"/></svg>