<svg xmlns="http://www.w3.org/2000/svg" width="28" height="28" fill="none"><path fill="#1373EB" d="M12.354 12.5c3.351 0 6.067-2.686 6.067-6s-2.716-6-6.067-6c-3.35 0-6.067 2.686-6.067 6s2.717 6 6.067 6zM.595 24.53c1.336-5.19 6.094-9.03 11.76-9.03 5.664 0 10.423 3.84 11.759 9.03.413 1.606-.984 2.97-2.66 2.97h-18.2c-1.675 0-3.072-1.364-2.659-2.97zM22.971 8c.838 0 1.517.672 1.517 1.5V11h1.517c.838 0 1.517.672 1.517 1.5s-.68 1.5-1.517 1.5h-1.517v1.5c0 .828-.679 1.5-1.517 1.5a1.508 1.508 0 0 1-1.516-1.5V14h-1.517a1.508 1.508 0 0 1-1.517-1.5c0-.828.68-1.5 1.517-1.5h1.517V9.5c0-.828.679-1.5 1.517-1.5z"/></svg>