<svg xmlns="http://www.w3.org/2000/svg" width="29" height="28" fill="none"><path fill="#1373EB" d="M9.692 9.48h2.491v2.694c0 .496.372.898.83.898h3.323c.459 0 .83-.402.83-.898V9.48h2.492c.46 0 .831-.402.831-.898V4.99c0-.496-.372-.898-.83-.898h-2.492V1.398c0-.496-.372-.898-.83-.898h-3.323c-.459 0-.83.402-.83.898v2.694H9.691c-.46 0-.83.402-.83.898v3.592c0 .496.37.898.83.898zM27.21 4.143c-.955-.029-1.737.799-1.737 1.825l.004 8.783c0 .73-.266 1.43-.749 1.952l-2.5 2.702c-.316.342-.83.374-1.162.05a.95.95 0 0 1-.03-1.301l2.297-2.483c.675-.729.676-1.91.004-2.64a1.639 1.639 0 0 0-2.445-.009l-5.14 5.518a.938.938 0 0 0-.247.638V27.5h9.137v-4.294l3.961-4.227a.936.936 0 0 0 .247-.639V6.006c0-.995-.721-1.835-1.64-1.863zM8.458 13.022a1.639 1.639 0 0 0-2.445.008c-.672.73-.67 1.912.003 2.64l2.297 2.484a.95.95 0 0 1-.03 1.3c-.33.325-.845.293-1.161-.049l-2.5-2.703a2.872 2.872 0 0 1-.75-1.95l.005-8.743c0-1.025-.775-1.887-1.722-1.866C1.237 4.163.5 4.973.5 5.968V18.34c0 .24.09.47.247.639l3.961 4.227V27.5h9.136v-8.322c0-.24-.088-.47-.245-.638l-5.141-5.518z"/></svg>