<svg width="21" height="24" viewBox="0 0 21 24" fill="none" xmlns="http://www.w3.org/2000/svg">
<g clip-path="url(#clip0_119_6)">
<path d="M18.75 3H16.5V0.5625C16.5 0.253125 16.2469 0 15.9375 0H14.0625C13.7531 0 13.5 0.253125 13.5 0.5625V3H7.5V0.5625C7.5 0.253125 7.24687 0 6.9375 0H5.0625C4.75313 0 4.5 0.253125 4.5 0.5625V3H2.25C1.00781 3 0 4.00781 0 5.25V21.75C0 22.9922 1.00781 24 2.25 24H18.75C19.9922 24 21 22.9922 21 21.75V5.25C21 4.00781 19.9922 3 18.75 3ZM18.4688 21.75H2.53125C2.37656 21.75 2.25 21.6234 2.25 21.4688V7.5H18.75V21.4688C18.75 21.6234 18.6234 21.75 18.4688 21.75Z" fill="#1373EB"/>
</g>
<defs>
<clipPath id="clip0_119_6">
<rect width="21" height="24" fill="white"/>
</clipPath>
</defs>
</svg>
