<svg xmlns="http://www.w3.org/2000/svg" width="168" height="35" fill="none"><path d="M 44.32 25.376 L 44.32 7.208 L 47.92 7.208 L 47.92 25.376 Z M 57.058 25.664 C 55.762 25.664 54.578 25.368 53.506 24.776 C 52.465 24.198 51.589 23.364 50.962 22.352 C 50.338 21.312 50.026 20.136 50.026 18.824 C 50.026 17.496 50.338 16.32 50.962 15.296 C 51.589 14.284 52.465 13.45 53.506 12.872 C 54.578 12.28 55.762 11.984 57.058 11.984 C 58.354 11.984 59.53 12.28 60.586 12.872 C 61.623 13.446 62.492 14.282 63.106 15.296 C 63.746 16.32 64.066 17.496 64.066 18.824 C 64.066 20.136 63.746 21.312 63.106 22.352 C 62.492 23.366 61.623 24.202 60.586 24.776 C 59.53 25.368 58.354 25.664 57.058 25.664 Z M 57.058 22.424 C 57.714 22.424 58.282 22.272 58.762 21.968 C 59.258 21.664 59.642 21.24 59.914 20.696 C 60.202 20.152 60.346 19.528 60.346 18.824 C 60.346 18.12 60.202 17.504 59.914 16.976 C 59.659 16.451 59.259 16.01 58.762 15.704 C 58.282 15.384 57.714 15.224 57.058 15.224 C 56.402 15.224 55.826 15.384 55.33 15.704 C 54.829 16.013 54.423 16.453 54.154 16.976 C 53.882 17.504 53.746 18.12 53.746 18.824 C 53.746 19.528 53.882 20.152 54.154 20.696 C 54.442 21.24 54.834 21.664 55.33 21.968 C 55.826 22.272 56.402 22.424 57.058 22.424 Z M 72.619 30.656 C 71.66 30.665 70.707 30.494 69.811 30.152 C 68.979 29.836 68.219 29.354 67.579 28.736 C 66.974 28.149 66.521 27.425 66.259 26.624 L 69.595 25.448 C 69.763 26.046 70.148 26.559 70.675 26.888 C 71.219 27.24 71.867 27.416 72.619 27.416 C 73.211 27.416 73.723 27.304 74.155 27.08 C 74.587 26.872 74.915 26.56 75.139 26.144 C 75.379 25.728 75.499 25.24 75.499 24.68 L 75.499 21.68 L 76.195 22.544 C 75.747 23.28 75.171 23.832 74.467 24.2 C 73.763 24.552 72.939 24.728 71.995 24.728 C 70.779 24.728 69.691 24.456 68.731 23.912 C 67.788 23.369 67.008 22.581 66.475 21.632 C 65.931 20.656 65.659 19.552 65.659 18.32 C 65.659 17.088 65.931 16 66.475 15.056 C 67 14.115 67.772 13.335 68.707 12.8 C 69.651 12.256 70.723 11.984 71.923 11.984 C 72.867 11.984 73.691 12.176 74.395 12.56 C 75.099 12.928 75.699 13.496 76.195 14.264 L 75.739 15.128 L 75.739 12.272 L 79.099 12.272 L 79.099 24.68 C 79.099 25.832 78.819 26.856 78.259 27.752 C 77.701 28.662 76.904 29.401 75.955 29.888 C 74.995 30.4 73.883 30.656 72.619 30.656 Z M 72.499 21.464 C 73.107 21.464 73.635 21.336 74.083 21.08 C 74.526 20.829 74.885 20.454 75.115 20 C 75.371 19.536 75.499 18.992 75.499 18.368 C 75.499 17.744 75.371 17.2 75.115 16.736 C 74.876 16.274 74.51 15.891 74.059 15.632 C 73.611 15.36 73.091 15.224 72.499 15.224 C 71.891 15.224 71.347 15.36 70.867 15.632 C 70.402 15.889 70.02 16.271 69.763 16.736 C 69.507 17.2 69.379 17.744 69.379 18.368 C 69.379 18.976 69.507 19.512 69.763 19.976 C 70.035 20.44 70.403 20.808 70.867 21.08 C 71.347 21.336 71.891 21.464 72.499 21.464 Z M 88.254 25.664 C 86.958 25.664 85.774 25.368 84.702 24.776 C 83.661 24.198 82.785 23.364 82.158 22.352 C 81.534 21.312 81.222 20.136 81.222 18.824 C 81.222 17.496 81.534 16.32 82.158 15.296 C 82.785 14.284 83.661 13.45 84.702 12.872 C 85.774 12.28 86.958 11.984 88.254 11.984 C 89.55 11.984 90.726 12.28 91.782 12.872 C 92.819 13.446 93.688 14.282 94.302 15.296 C 94.942 16.32 95.262 17.496 95.262 18.824 C 95.262 20.136 94.942 21.312 94.302 22.352 C 93.688 23.366 92.819 24.202 91.782 24.776 C 90.726 25.368 89.55 25.664 88.254 25.664 Z M 88.254 22.424 C 88.91 22.424 89.478 22.272 89.958 21.968 C 90.454 21.664 90.838 21.24 91.11 20.696 C 91.398 20.152 91.542 19.528 91.542 18.824 C 91.542 18.12 91.398 17.504 91.11 16.976 C 90.855 16.451 90.455 16.01 89.958 15.704 C 89.478 15.384 88.91 15.224 88.254 15.224 C 87.598 15.224 87.022 15.384 86.526 15.704 C 86.025 16.013 85.619 16.453 85.35 16.976 C 85.078 17.504 84.942 18.12 84.942 18.824 C 84.942 19.528 85.078 20.152 85.35 20.696 C 85.638 21.24 86.03 21.664 86.526 21.968 C 87.022 22.272 87.598 22.424 88.254 22.424 Z M 97.382 25.376 L 97.382 12.272 L 100.983 12.272 L 100.983 25.376 L 97.383 25.376 Z M 97.382 11.096 L 97.382 7.496 L 100.983 7.496 L 100.983 11.096 L 97.383 11.096 Z M 103.617 30.176 L 103.617 12.272 L 106.977 12.272 L 106.977 14.768 L 106.665 14.048 C 107.098 13.391 107.704 12.868 108.417 12.536 C 109.169 12.168 110.025 11.984 110.985 11.984 C 112.233 11.984 113.361 12.288 114.369 12.896 C 115.37 13.497 116.198 14.349 116.769 15.368 C 117.361 16.392 117.657 17.544 117.657 18.824 C 117.657 20.088 117.361 21.24 116.769 22.28 C 116.211 23.301 115.391 24.154 114.393 24.752 C 113.385 25.36 112.241 25.664 110.961 25.664 C 110.065 25.664 109.233 25.504 108.465 25.184 C 107.737 24.867 107.107 24.362 106.641 23.72 L 107.217 22.976 L 107.217 30.176 Z M 110.529 22.424 C 111.201 22.424 111.793 22.272 112.305 21.968 C 112.816 21.665 113.232 21.224 113.505 20.696 C 113.793 20.152 113.937 19.528 113.937 18.824 C 113.937 18.12 113.793 17.504 113.505 16.976 C 113.232 16.448 112.816 16.007 112.305 15.704 C 111.793 15.384 111.201 15.224 110.529 15.224 C 109.922 15.215 109.324 15.373 108.801 15.68 C 108.3 15.989 107.894 16.429 107.625 16.952 C 107.353 17.496 107.217 18.12 107.217 18.824 C 107.217 19.528 107.353 20.152 107.625 20.696 C 107.913 21.24 108.305 21.664 108.801 21.968 C 109.324 22.275 109.922 22.433 110.529 22.424 Z M 124.901 25.664 C 123.461 25.664 122.205 25.328 121.133 24.656 C 120.077 23.968 119.357 23.048 118.973 21.896 L 121.613 20.648 C 121.949 21.352 122.405 21.904 122.981 22.304 C 123.557 22.704 124.197 22.904 124.901 22.904 C 125.413 22.904 125.805 22.8 126.077 22.592 C 126.349 22.384 126.485 22.096 126.485 21.728 C 126.491 21.556 126.441 21.388 126.341 21.248 C 126.228 21.089 126.08 20.957 125.909 20.864 C 125.682 20.738 125.44 20.641 125.189 20.576 L 122.957 19.952 C 121.885 19.648 121.061 19.16 120.485 18.488 C 119.909 17.8 119.621 16.992 119.621 16.064 C 119.621 15.248 119.829 14.536 120.245 13.928 C 120.661 13.32 121.245 12.848 121.997 12.512 C 122.749 12.16 123.613 11.984 124.589 11.984 C 125.869 11.984 126.989 12.288 127.949 12.896 C 128.91 13.47 129.64 14.361 130.013 15.416 L 127.349 16.664 C 127.159 16.122 126.785 15.664 126.293 15.368 C 125.79 15.03 125.195 14.854 124.589 14.864 C 124.125 14.864 123.757 14.96 123.485 15.152 C 123.233 15.336 123.089 15.633 123.101 15.944 C 123.101 16.12 123.149 16.28 123.245 16.424 C 123.341 16.568 123.493 16.696 123.701 16.808 C 123.925 16.92 124.197 17.024 124.517 17.12 L 126.605 17.744 C 127.693 18.064 128.525 18.552 129.101 19.208 C 129.677 19.848 129.965 20.64 129.965 21.584 C 129.965 22.4 129.749 23.112 129.317 23.72 C 128.901 24.328 128.317 24.808 127.565 25.16 C 126.813 25.496 125.925 25.664 124.901 25.664 Z M 136.821 25.664 C 135.765 25.664 134.861 25.44 134.109 24.992 C 133.374 24.529 132.79 23.862 132.429 23.072 C 132.045 22.256 131.853 21.304 131.853 20.216 L 131.853 12.272 L 135.453 12.272 L 135.453 19.928 C 135.453 20.424 135.549 20.864 135.741 21.248 C 135.949 21.616 136.237 21.904 136.605 22.112 C 136.973 22.32 137.389 22.424 137.853 22.424 C 138.333 22.424 138.749 22.32 139.101 22.112 C 139.46 21.913 139.752 21.613 139.941 21.248 C 140.149 20.864 140.253 20.424 140.253 19.928 L 140.253 12.272 L 143.853 12.272 L 143.853 25.376 L 140.493 25.376 L 140.493 22.784 L 140.685 23.36 C 140.381 24.144 139.885 24.728 139.197 25.112 C 138.525 25.48 137.733 25.664 136.821 25.664 Z M 146.484 25.376 L 146.484 12.272 L 149.844 12.272 L 149.844 15.464 L 149.484 14.936 C 149.676 13.928 150.14 13.184 150.876 12.704 C 151.612 12.224 152.492 11.984 153.516 11.984 C 154.604 11.984 155.556 12.264 156.372 12.824 C 157.204 13.368 157.724 14.104 157.932 15.032 L 156.9 15.128 C 157.332 14.056 157.948 13.264 158.748 12.752 C 159.548 12.24 160.484 11.984 161.556 11.984 C 162.5 11.984 163.332 12.192 164.052 12.608 C 164.782 13.018 165.381 13.625 165.78 14.36 C 166.196 15.096 166.404 15.96 166.404 16.952 L 166.404 25.376 L 162.804 25.376 L 162.804 17.72 C 162.804 17.208 162.708 16.768 162.516 16.4 C 162.35 16.043 162.083 15.743 161.748 15.536 C 161.412 15.328 161.004 15.224 160.524 15.224 C 160.095 15.215 159.672 15.323 159.3 15.536 C 158.964 15.744 158.7 16.032 158.508 16.4 C 158.332 16.768 158.244 17.208 158.244 17.72 L 158.244 25.376 L 154.644 25.376 L 154.644 17.72 C 154.644 17.208 154.548 16.768 154.356 16.4 C 154.19 16.043 153.923 15.743 153.588 15.536 C 153.252 15.328 152.844 15.224 152.364 15.224 C 151.935 15.215 151.512 15.323 151.14 15.536 C 150.804 15.744 150.54 16.032 150.348 16.4 C 150.172 16.768 150.084 17.208 150.084 17.72 L 150.084 25.376 Z" fill="rgb(99,99,99)"></path><path d="M 17 1 C 26.389 1 34 8.611 34 18 C 34 27.389 26.389 35 17 35 C 7.611 35 0 27.389 0 18 C 0 8.611 7.611 1 17 1 Z M 20.933 7.541 L 13.068 7.541 L 13.068 14.068 L 6.54 14.068 L 6.54 21.932 L 13.067 21.932 L 13.067 28.459 L 20.932 28.459 L 20.932 21.932 L 27.458 21.932 L 27.458 14.068 L 20.932 14.068 L 20.932 7.54 Z" fill="rgb(99,99,99)"></path></svg>