<svg xmlns="http://www.w3.org/2000/svg" width="165" height="37" fill="none"><path d="M 42.584 25.376 L 42.584 7.208 L 45.296 7.208 L 45.296 25.376 Z M 54.731 25.664 C 53.483 25.664 52.339 25.368 51.299 24.776 C 50.286 24.195 49.442 23.359 48.851 22.352 C 48.243 21.328 47.939 20.168 47.939 18.872 C 47.939 17.56 48.243 16.4 48.851 15.392 C 49.438 14.388 50.284 13.56 51.299 12.992 C 52.323 12.4 53.467 12.104 54.731 12.104 C 56.011 12.104 57.155 12.4 58.163 12.992 C 59.175 13.556 60.013 14.386 60.587 15.392 C 61.195 16.4 61.499 17.56 61.499 18.872 C 61.499 20.184 61.195 21.352 60.587 22.376 C 59.996 23.383 59.152 24.219 58.139 24.8 C 57.115 25.376 55.979 25.664 54.731 25.664 Z M 54.731 23.144 C 55.499 23.144 56.179 22.96 56.771 22.592 C 57.363 22.223 57.845 21.701 58.163 21.08 C 58.515 20.424 58.691 19.688 58.691 18.872 C 58.691 18.056 58.515 17.328 58.163 16.688 C 57.845 16.067 57.363 15.545 56.771 15.176 C 56.179 14.808 55.499 14.624 54.731 14.624 C 53.979 14.624 53.299 14.808 52.691 15.176 C 52.095 15.548 51.607 16.069 51.275 16.688 C 50.939 17.328 50.771 18.056 50.771 18.872 C 50.771 19.688 50.939 20.424 51.275 21.08 C 51.627 21.72 52.099 22.224 52.691 22.592 C 53.306 22.962 54.013 23.153 54.731 23.144 Z M 70.411 30.656 C 69.518 30.665 68.631 30.511 67.794 30.2 C 67.029 29.917 66.327 29.485 65.731 28.928 C 65.162 28.411 64.719 27.77 64.435 27.056 L 66.93 26.024 C 67.154 26.632 67.562 27.136 68.154 27.536 C 68.763 27.936 69.507 28.136 70.387 28.136 C 71.075 28.136 71.69 28 72.234 27.728 C 72.77 27.48 73.221 27.079 73.531 26.576 C 73.851 26.08 74.011 25.48 74.011 24.776 L 74.011 21.848 L 74.491 22.4 C 74.07 23.205 73.418 23.865 72.618 24.296 C 71.835 24.728 70.947 24.944 69.955 24.944 C 68.755 24.944 67.675 24.664 66.715 24.104 C 65.764 23.553 64.976 22.757 64.435 21.8 C 63.891 20.824 63.618 19.728 63.618 18.512 C 63.618 17.28 63.891 16.184 64.434 15.224 C 64.977 14.282 65.754 13.496 66.691 12.944 C 67.635 12.384 68.714 12.104 69.931 12.104 C 70.923 12.104 71.802 12.32 72.571 12.752 C 73.355 13.168 73.995 13.776 74.491 14.576 L 74.131 15.248 L 74.131 12.392 L 76.698 12.392 L 76.698 24.776 C 76.698 25.896 76.427 26.896 75.882 27.776 C 75.355 28.671 74.591 29.402 73.674 29.888 C 72.73 30.4 71.642 30.656 70.41 30.656 Z M 70.266 22.424 C 70.986 22.424 71.626 22.256 72.186 21.92 C 72.746 21.568 73.186 21.104 73.506 20.528 C 73.843 19.936 74.01 19.272 74.01 18.536 C 74.01 17.8 73.842 17.136 73.506 16.544 C 73.188 15.97 72.724 15.49 72.162 15.152 C 71.594 14.798 70.936 14.614 70.266 14.624 C 69.53 14.624 68.874 14.8 68.298 15.152 C 67.722 15.488 67.266 15.952 66.93 16.544 C 66.61 17.12 66.45 17.784 66.45 18.536 C 66.45 19.256 66.61 19.912 66.93 20.504 C 67.256 21.086 67.728 21.574 68.298 21.92 C 68.874 22.256 69.531 22.424 70.266 22.424 Z M 86.137 25.664 C 84.889 25.664 83.745 25.368 82.705 24.776 C 81.692 24.195 80.848 23.359 80.257 22.352 C 79.649 21.328 79.345 20.168 79.345 18.872 C 79.345 17.56 79.649 16.4 80.257 15.392 C 80.844 14.388 81.69 13.56 82.705 12.992 C 83.729 12.4 84.873 12.104 86.137 12.104 C 87.417 12.104 88.561 12.4 89.569 12.992 C 90.581 13.556 91.419 14.386 91.993 15.392 C 92.601 16.4 92.905 17.56 92.905 18.872 C 92.905 20.184 92.601 21.352 91.993 22.376 C 91.402 23.383 90.558 24.219 89.545 24.8 C 88.521 25.376 87.385 25.664 86.137 25.664 Z M 86.137 23.144 C 86.905 23.144 87.585 22.96 88.177 22.592 C 88.769 22.223 89.251 21.701 89.569 21.08 C 89.921 20.424 90.097 19.688 90.097 18.872 C 90.097 18.056 89.921 17.328 89.569 16.688 C 89.251 16.067 88.769 15.545 88.177 15.176 C 87.585 14.808 86.905 14.624 86.137 14.624 C 85.385 14.624 84.705 14.808 84.097 15.176 C 83.501 15.548 83.013 16.069 82.681 16.688 C 82.345 17.328 82.177 18.056 82.177 18.872 C 82.177 19.688 82.345 20.424 82.681 21.08 C 83.033 21.72 83.505 22.224 84.097 22.592 C 84.712 22.962 85.419 23.153 86.137 23.144 Z M 95.553 25.376 L 95.553 12.392 L 98.265 12.392 L 98.265 25.376 Z M 95.553 10.616 L 95.553 7.496 L 98.265 7.496 L 98.265 10.616 Z M 101.436 30.176 L 101.436 12.392 L 104.028 12.392 L 104.028 15.08 L 103.716 14.456 C 104.194 13.722 104.856 13.126 105.636 12.728 C 106.436 12.312 107.348 12.104 108.372 12.104 C 109.604 12.104 110.708 12.4 111.684 12.992 C 112.666 13.573 113.471 14.411 114.012 15.416 C 114.588 16.44 114.876 17.592 114.876 18.872 C 114.876 20.152 114.588 21.304 114.012 22.328 C 113.471 23.331 112.677 24.176 111.708 24.776 C 110.732 25.368 109.62 25.664 108.372 25.664 C 107.364 25.664 106.444 25.456 105.612 25.04 C 104.815 24.642 104.155 24.015 103.716 23.24 L 104.148 22.736 L 104.148 30.176 Z M 108.108 23.144 C 108.876 23.144 109.556 22.96 110.148 22.592 C 110.74 22.223 111.222 21.701 111.54 21.08 C 111.892 20.424 112.068 19.688 112.068 18.872 C 112.068 18.056 111.892 17.328 111.54 16.688 C 111.222 16.067 110.74 15.545 110.148 15.176 C 109.556 14.808 108.876 14.624 108.108 14.624 C 107.356 14.624 106.676 14.808 106.068 15.176 C 105.472 15.548 104.984 16.069 104.652 16.688 C 104.316 17.328 104.148 18.056 104.148 18.872 C 104.148 19.688 104.316 20.424 104.652 21.08 C 105.004 21.72 105.476 22.224 106.068 22.592 C 106.683 22.962 107.39 23.153 108.108 23.144 Z M 122.314 25.664 C 120.986 25.664 119.818 25.336 118.81 24.68 C 117.842 24.054 117.108 23.126 116.722 22.04 L 118.81 21.056 C 119.162 21.792 119.642 22.376 120.25 22.808 C 120.854 23.234 121.575 23.46 122.314 23.456 C 122.954 23.456 123.474 23.312 123.874 23.024 C 124.274 22.736 124.474 22.344 124.474 21.848 C 124.474 21.528 124.386 21.272 124.21 21.08 C 124.025 20.865 123.796 20.693 123.538 20.576 C 123.286 20.449 123.02 20.353 122.746 20.288 L 120.706 19.712 C 119.586 19.392 118.746 18.912 118.186 18.272 C 117.649 17.635 117.359 16.825 117.37 15.992 C 117.37 15.208 117.57 14.528 117.97 13.952 C 118.37 13.36 118.922 12.904 119.626 12.584 C 120.33 12.264 121.122 12.104 122.002 12.104 C 123.186 12.104 124.242 12.4 125.17 12.992 C 126.084 13.551 126.779 14.407 127.138 15.416 L 125.05 16.4 C 124.805 15.79 124.378 15.27 123.826 14.912 C 123.281 14.544 122.636 14.351 121.978 14.36 C 121.386 14.36 120.914 14.504 120.562 14.792 C 120.22 15.044 120.023 15.447 120.034 15.872 C 120.034 16.176 120.114 16.432 120.274 16.64 C 120.434 16.832 120.642 16.992 120.898 17.12 C 121.154 17.232 121.418 17.328 121.69 17.408 L 123.802 18.032 C 124.874 18.336 125.698 18.816 126.274 19.472 C 126.85 20.112 127.138 20.88 127.138 21.776 C 127.138 22.544 126.93 23.224 126.514 23.816 C 126.114 24.392 125.554 24.848 124.834 25.184 C 124.114 25.504 123.274 25.664 122.314 25.664 Z M 134.427 25.664 C 133.451 25.664 132.595 25.448 131.859 25.016 C 131.125 24.57 130.527 23.931 130.131 23.168 C 129.731 22.368 129.531 21.448 129.531 20.408 L 129.531 12.392 L 132.243 12.392 L 132.243 20.168 C 132.243 20.76 132.363 21.28 132.603 21.728 C 132.843 22.176 133.179 22.528 133.611 22.784 C 134.043 23.024 134.539 23.144 135.099 23.144 C 135.675 23.144 136.179 23.016 136.611 22.76 C 137.043 22.504 137.393 22.129 137.619 21.68 C 137.875 21.216 138.003 20.672 138.003 20.048 L 138.003 12.392 L 140.691 12.392 L 140.691 25.376 L 138.123 25.376 L 138.123 22.832 L 138.411 23.168 C 138.107 23.968 137.603 24.584 136.899 25.016 C 136.195 25.448 135.371 25.664 134.427 25.664 Z M 143.857 25.376 L 143.857 12.392 L 146.449 12.392 L 146.449 15.2 L 146.113 14.768 C 146.385 13.888 146.881 13.224 147.601 12.776 C 148.321 12.328 149.145 12.104 150.073 12.104 C 151.113 12.104 152.033 12.384 152.833 12.944 C 153.649 13.488 154.193 14.216 154.465 15.128 L 153.697 15.2 C 154.081 14.16 154.665 13.384 155.449 12.872 C 156.249 12.36 157.161 12.104 158.185 12.104 C 159.081 12.104 159.889 12.312 160.609 12.728 C 161.345 13.144 161.929 13.72 162.361 14.456 C 162.793 15.192 163.009 16.032 163.009 16.976 L 163.009 25.376 L 160.297 25.376 L 160.297 17.72 C 160.297 17.064 160.177 16.512 159.937 16.064 C 159.733 15.622 159.398 15.253 158.977 15.008 C 158.577 14.752 158.105 14.624 157.561 14.624 C 157.017 14.624 156.537 14.752 156.121 15.008 C 155.705 15.248 155.377 15.6 155.137 16.064 C 154.897 16.528 154.777 17.08 154.777 17.72 L 154.777 25.376 L 152.089 25.376 L 152.089 17.72 C 152.089 17.064 151.969 16.512 151.729 16.064 C 151.525 15.622 151.19 15.253 150.769 15.008 C 150.369 14.752 149.889 14.624 149.329 14.624 C 148.785 14.624 148.305 14.752 147.889 15.008 C 147.473 15.248 147.145 15.6 146.905 16.064 C 146.681 16.528 146.569 17.08 146.569 17.72 L 146.569 25.376 Z M 25.881 10.831 L 17.16 5.74 C 16.718 5.504 16.188 5.504 15.746 5.74 L 7.024 10.83 C 6.582 11.066 6.052 11.066 5.61 10.83 L 3.63 9.7 C 3.192 9.447 2.923 8.98 2.923 8.474 C 2.923 7.968 3.192 7.501 3.63 7.248 L 15.746 0.177 C 16.188 -0.059 16.718 -0.059 17.16 0.177 L 29.276 7.248 C 29.714 7.501 29.983 7.968 29.983 8.474 C 29.983 8.98 29.714 9.447 29.276 9.7 L 27.296 10.831 C 26.871 11.114 26.306 11.114 25.881 10.831 Z M 10.56 24.361 L 15.699 21.344 C 16.141 21.108 16.671 21.108 17.113 21.344 L 22.299 24.361 C 22.519 24.498 22.652 24.739 22.652 24.998 C 22.652 25.256 22.519 25.497 22.299 25.634 L 17.16 28.65 C 16.718 28.886 16.188 28.886 15.746 28.65 L 10.56 25.633 C 10.34 25.496 10.207 25.255 10.207 24.997 C 10.207 24.738 10.34 24.497 10.56 24.36 Z" fill="rgb(99,99,99)"></path><path d="M 20.177 11.208 L 24.326 13.613 C 24.75 13.848 25.033 14.32 25.033 14.838 L 25.033 20.825 C 25.033 21.438 24.373 21.815 23.854 21.485 L 18.763 18.515 C 18.324 18.263 18.054 17.796 18.056 17.29 L 18.056 12.434 C 18.056 11.35 19.234 10.69 20.177 11.208 Z M 14.143 18.563 L 8.957 21.58 C 8.736 21.713 8.461 21.717 8.236 21.59 C 8.012 21.463 7.873 21.225 7.873 20.967 L 7.873 14.885 C 7.873 14.367 8.156 13.895 8.58 13.66 L 12.729 11.255 C 13.671 10.69 14.85 11.397 14.85 12.481 L 14.85 17.384 C 14.85 17.855 14.614 18.28 14.143 18.562 Z" fill="rgb(99,99,99)"></path><path d="M 32.246 29.17 L 20.177 36.24 C 19.234 36.806 18.056 36.099 18.056 35.014 L 18.056 32.704 C 18.056 32.186 18.339 31.714 18.763 31.479 L 27.531 26.34 C 27.956 26.104 28.239 25.633 28.239 25.114 L 28.239 14.884 C 28.239 14.366 28.521 13.894 28.946 13.659 L 30.879 12.527 C 31.821 11.961 33 12.669 33 13.753 L 33 27.943 C 32.953 28.414 32.67 28.886 32.246 29.169 Z M 4.714 14.885 L 4.714 25.163 C 4.714 25.681 4.997 26.153 5.421 26.388 L 14.19 31.527 C 14.614 31.762 14.897 32.234 14.897 32.752 L 14.897 35.062 C 14.897 36.147 13.719 36.854 12.776 36.288 L 0.707 29.217 C 0.268 28.965 -0.002 28.496 0 27.99 L 0 13.754 C 0 12.67 1.179 11.963 2.121 12.528 L 4.054 13.66 C 4.431 13.895 4.714 14.367 4.714 14.885 Z" fill="rgb(99,99,99)"></path></svg>