<svg xmlns="http://www.w3.org/2000/svg" width="168" height="35" fill="none"><path d="M 5.667 11.71 C 3.374 11.711 1.307 10.33 0.429 8.212 C -0.449 6.094 0.036 3.656 1.657 2.034 C 3.278 0.413 5.716 -0.072 7.834 0.806 C 9.952 1.683 11.333 3.75 11.333 6.043 C 11.333 9.173 13.87 11.71 17 11.71 C 20.13 11.71 22.667 9.173 22.667 6.043 C 22.667 3.751 24.047 1.684 26.165 0.807 C 28.283 -0.071 30.72 0.414 32.341 2.035 C 33.962 3.656 34.447 6.093 33.569 8.211 C 32.692 10.329 30.625 11.709 28.333 11.709 C 18.943 11.709 11.333 19.322 11.333 28.709 C 11.262 31.788 8.746 34.247 5.667 34.247 C 2.587 34.247 0.071 31.788 0 28.709 C 0.001 25.58 2.538 23.043 5.667 23.043 C 8.797 23.043 11.334 20.506 11.334 17.376 C 11.334 14.246 8.797 11.709 5.667 11.709 Z" fill="rgb(99,99,99)"></path><path d="M 15.583 25.167 C 15.582 22.725 16.553 20.382 18.28 18.655 C 20.007 16.928 22.35 15.958 24.792 15.959 C 27.234 15.958 29.577 16.928 31.304 18.655 C 33.031 20.382 34.001 22.725 34 25.167 C 34.001 27.61 33.03 29.952 31.303 31.679 C 29.576 33.406 27.234 34.377 24.791 34.376 C 22.349 34.376 20.006 33.406 18.279 31.679 C 16.552 29.952 15.582 27.609 15.583 25.167 Z M 45.584 25.376 L 45.584 7.208 L 48.296 7.208 L 48.296 25.376 Z M 57.731 25.664 C 56.483 25.664 55.339 25.368 54.299 24.776 C 53.286 24.195 52.442 23.359 51.851 22.352 C 51.243 21.328 50.939 20.168 50.939 18.872 C 50.939 17.56 51.243 16.4 51.851 15.392 C 52.438 14.388 53.284 13.56 54.299 12.992 C 55.323 12.4 56.467 12.104 57.731 12.104 C 59.011 12.104 60.155 12.4 61.163 12.992 C 62.175 13.556 63.013 14.386 63.587 15.392 C 64.195 16.4 64.499 17.56 64.499 18.872 C 64.499 20.184 64.195 21.352 63.587 22.376 C 62.996 23.383 62.152 24.219 61.139 24.8 C 60.115 25.376 58.979 25.664 57.731 25.664 Z M 57.731 23.144 C 58.499 23.144 59.179 22.96 59.771 22.592 C 60.363 22.223 60.845 21.701 61.163 21.08 C 61.515 20.424 61.691 19.688 61.691 18.872 C 61.691 18.056 61.515 17.328 61.163 16.688 C 60.845 16.067 60.363 15.545 59.771 15.176 C 59.179 14.808 58.499 14.624 57.731 14.624 C 56.979 14.624 56.299 14.808 55.691 15.176 C 55.095 15.548 54.607 16.069 54.275 16.688 C 53.939 17.328 53.771 18.056 53.771 18.872 C 53.771 19.688 53.939 20.424 54.275 21.08 C 54.627 21.72 55.099 22.224 55.691 22.592 C 56.306 22.962 57.013 23.153 57.731 23.144 Z M 73.411 30.656 C 72.518 30.665 71.631 30.511 70.794 30.2 C 70.029 29.917 69.327 29.485 68.731 28.928 C 68.162 28.411 67.719 27.77 67.435 27.056 L 69.93 26.024 C 70.154 26.632 70.562 27.136 71.154 27.536 C 71.763 27.936 72.507 28.136 73.387 28.136 C 74.075 28.136 74.69 28 75.234 27.728 C 75.77 27.48 76.221 27.079 76.531 26.576 C 76.851 26.08 77.011 25.48 77.011 24.776 L 77.011 21.848 L 77.491 22.4 C 77.07 23.205 76.418 23.865 75.618 24.296 C 74.835 24.728 73.947 24.944 72.955 24.944 C 71.755 24.944 70.675 24.664 69.715 24.104 C 68.764 23.553 67.976 22.757 67.435 21.8 C 66.891 20.824 66.618 19.728 66.618 18.512 C 66.618 17.28 66.891 16.184 67.435 15.224 C 67.977 14.282 68.754 13.496 69.69 12.944 C 70.635 12.384 71.715 12.104 72.93 12.104 C 73.922 12.104 74.802 12.32 75.57 12.752 C 76.355 13.168 76.995 13.776 77.49 14.576 L 77.13 15.248 L 77.13 12.392 L 79.7 12.392 L 79.7 24.776 C 79.7 25.896 79.428 26.896 78.883 27.776 C 78.356 28.671 77.592 29.402 76.675 29.888 C 75.731 30.4 74.643 30.656 73.411 30.656 Z M 73.266 22.424 C 73.986 22.424 74.626 22.256 75.186 21.92 C 75.746 21.568 76.186 21.104 76.506 20.528 C 76.843 19.936 77.01 19.272 77.01 18.536 C 77.01 17.8 76.842 17.136 76.506 16.544 C 76.188 15.97 75.724 15.49 75.162 15.152 C 74.594 14.798 73.936 14.614 73.266 14.624 C 72.53 14.624 71.874 14.8 71.298 15.152 C 70.722 15.488 70.266 15.952 69.93 16.544 C 69.61 17.12 69.45 17.784 69.45 18.536 C 69.45 19.256 69.61 19.912 69.93 20.504 C 70.256 21.086 70.728 21.574 71.298 21.92 C 71.874 22.256 72.531 22.424 73.266 22.424 Z M 89.137 25.664 C 87.889 25.664 86.745 25.368 85.705 24.776 C 84.692 24.195 83.848 23.359 83.257 22.352 C 82.649 21.328 82.345 20.168 82.345 18.872 C 82.345 17.56 82.649 16.4 83.257 15.392 C 83.844 14.388 84.69 13.56 85.705 12.992 C 86.729 12.4 87.873 12.104 89.137 12.104 C 90.417 12.104 91.561 12.4 92.569 12.992 C 93.581 13.556 94.419 14.386 94.993 15.392 C 95.601 16.4 95.905 17.56 95.905 18.872 C 95.905 20.184 95.601 21.352 94.993 22.376 C 94.402 23.383 93.558 24.219 92.545 24.8 C 91.521 25.376 90.385 25.664 89.137 25.664 Z M 89.137 23.144 C 89.905 23.144 90.585 22.96 91.177 22.592 C 91.769 22.223 92.251 21.701 92.569 21.08 C 92.921 20.424 93.097 19.688 93.097 18.872 C 93.097 18.056 92.921 17.328 92.569 16.688 C 92.251 16.067 91.769 15.545 91.177 15.176 C 90.585 14.808 89.905 14.624 89.137 14.624 C 88.385 14.624 87.705 14.808 87.097 15.176 C 86.501 15.548 86.013 16.069 85.681 16.688 C 85.345 17.328 85.177 18.056 85.177 18.872 C 85.177 19.688 85.345 20.424 85.681 21.08 C 86.033 21.72 86.505 22.224 87.097 22.592 C 87.712 22.962 88.419 23.153 89.137 23.144 Z M 98.553 25.376 L 98.553 12.392 L 101.265 12.392 L 101.265 25.376 Z M 98.553 10.616 L 98.553 7.496 L 101.265 7.496 L 101.265 10.616 Z M 104.436 30.176 L 104.436 12.392 L 107.028 12.392 L 107.028 15.08 L 106.716 14.456 C 107.194 13.722 107.856 13.126 108.636 12.728 C 109.436 12.312 110.348 12.104 111.372 12.104 C 112.604 12.104 113.708 12.4 114.684 12.992 C 115.666 13.573 116.471 14.411 117.012 15.416 C 117.588 16.44 117.876 17.592 117.876 18.872 C 117.876 20.152 117.588 21.304 117.012 22.328 C 116.471 23.331 115.677 24.176 114.708 24.776 C 113.732 25.368 112.62 25.664 111.372 25.664 C 110.364 25.664 109.444 25.456 108.612 25.04 C 107.815 24.642 107.155 24.015 106.716 23.24 L 107.148 22.736 L 107.148 30.176 Z M 111.108 23.144 C 111.876 23.144 112.556 22.96 113.148 22.592 C 113.74 22.223 114.222 21.701 114.54 21.08 C 114.892 20.424 115.068 19.688 115.068 18.872 C 115.068 18.056 114.892 17.328 114.54 16.688 C 114.222 16.067 113.74 15.545 113.148 15.176 C 112.556 14.808 111.876 14.624 111.108 14.624 C 110.356 14.624 109.676 14.808 109.068 15.176 C 108.472 15.548 107.984 16.069 107.652 16.688 C 107.316 17.328 107.148 18.056 107.148 18.872 C 107.148 19.688 107.316 20.424 107.652 21.08 C 108.004 21.72 108.476 22.224 109.068 22.592 C 109.683 22.962 110.39 23.153 111.108 23.144 Z M 125.314 25.664 C 123.986 25.664 122.818 25.336 121.81 24.68 C 120.842 24.054 120.108 23.126 119.722 22.04 L 121.81 21.056 C 122.162 21.792 122.642 22.376 123.25 22.808 C 123.854 23.234 124.575 23.46 125.314 23.456 C 125.954 23.456 126.474 23.312 126.874 23.024 C 127.274 22.736 127.474 22.344 127.474 21.848 C 127.474 21.528 127.386 21.272 127.21 21.08 C 127.025 20.865 126.796 20.693 126.538 20.576 C 126.286 20.449 126.02 20.353 125.746 20.288 L 123.706 19.712 C 122.586 19.392 121.746 18.912 121.186 18.272 C 120.649 17.635 120.359 16.825 120.37 15.992 C 120.37 15.208 120.57 14.528 120.97 13.952 C 121.37 13.36 121.922 12.904 122.626 12.584 C 123.33 12.264 124.122 12.104 125.002 12.104 C 126.186 12.104 127.242 12.4 128.17 12.992 C 129.084 13.551 129.779 14.407 130.138 15.416 L 128.05 16.4 C 127.805 15.79 127.378 15.27 126.826 14.912 C 126.281 14.544 125.636 14.351 124.978 14.36 C 124.386 14.36 123.914 14.504 123.562 14.792 C 123.22 15.044 123.023 15.447 123.034 15.872 C 123.034 16.176 123.114 16.432 123.274 16.64 C 123.434 16.832 123.642 16.992 123.898 17.12 C 124.154 17.232 124.418 17.328 124.69 17.408 L 126.802 18.032 C 127.874 18.336 128.698 18.816 129.274 19.472 C 129.85 20.112 130.138 20.88 130.138 21.776 C 130.138 22.544 129.93 23.224 129.514 23.816 C 129.114 24.392 128.554 24.848 127.834 25.184 C 127.114 25.504 126.274 25.664 125.314 25.664 Z M 137.427 25.664 C 136.451 25.664 135.595 25.448 134.859 25.016 C 134.125 24.57 133.527 23.931 133.131 23.168 C 132.731 22.368 132.531 21.448 132.531 20.408 L 132.531 12.392 L 135.243 12.392 L 135.243 20.168 C 135.243 20.76 135.363 21.28 135.603 21.728 C 135.843 22.176 136.179 22.528 136.611 22.784 C 137.043 23.024 137.539 23.144 138.099 23.144 C 138.675 23.144 139.179 23.016 139.611 22.76 C 140.043 22.504 140.393 22.129 140.619 21.68 C 140.875 21.216 141.003 20.672 141.003 20.048 L 141.003 12.392 L 143.691 12.392 L 143.691 25.376 L 141.123 25.376 L 141.123 22.832 L 141.411 23.168 C 141.107 23.968 140.603 24.584 139.899 25.016 C 139.195 25.448 138.371 25.664 137.427 25.664 Z M 146.857 25.376 L 146.857 12.392 L 149.449 12.392 L 149.449 15.2 L 149.113 14.768 C 149.385 13.888 149.881 13.224 150.601 12.776 C 151.321 12.328 152.145 12.104 153.073 12.104 C 154.113 12.104 155.033 12.384 155.833 12.944 C 156.649 13.488 157.193 14.216 157.465 15.128 L 156.697 15.2 C 157.081 14.16 157.665 13.384 158.449 12.872 C 159.249 12.36 160.161 12.104 161.185 12.104 C 162.081 12.104 162.889 12.312 163.609 12.728 C 164.345 13.144 164.929 13.72 165.361 14.456 C 165.793 15.192 166.009 16.032 166.009 16.976 L 166.009 25.376 L 163.297 25.376 L 163.297 17.72 C 163.297 17.064 163.177 16.512 162.937 16.064 C 162.733 15.622 162.398 15.253 161.977 15.008 C 161.577 14.752 161.105 14.624 160.561 14.624 C 160.017 14.624 159.537 14.752 159.121 15.008 C 158.705 15.248 158.377 15.6 158.137 16.064 C 157.897 16.528 157.777 17.08 157.777 17.72 L 157.777 25.376 L 155.089 25.376 L 155.089 17.72 C 155.089 17.064 154.969 16.512 154.729 16.064 C 154.525 15.622 154.19 15.253 153.769 15.008 C 153.369 14.752 152.889 14.624 152.329 14.624 C 151.785 14.624 151.305 14.752 150.889 15.008 C 150.473 15.248 150.145 15.6 149.905 16.064 C 149.681 16.528 149.569 17.08 149.569 17.72 L 149.569 25.376 Z" fill="rgb(99,99,99)"></path></svg>