<svg xmlns="http://www.w3.org/2000/svg" width="166" height="37" fill="none"><path d="M 42.32 25.376 L 42.32 7.208 L 45.92 7.208 L 45.92 25.376 Z M 55.058 25.664 C 53.762 25.664 52.578 25.368 51.506 24.776 C 50.465 24.198 49.589 23.364 48.962 22.352 C 48.338 21.312 48.026 20.136 48.026 18.824 C 48.026 17.496 48.338 16.32 48.962 15.296 C 49.589 14.284 50.465 13.45 51.506 12.872 C 52.578 12.28 53.762 11.984 55.058 11.984 C 56.354 11.984 57.53 12.28 58.586 12.872 C 59.623 13.446 60.492 14.282 61.106 15.296 C 61.746 16.32 62.066 17.496 62.066 18.824 C 62.066 20.136 61.746 21.312 61.106 22.352 C 60.492 23.366 59.623 24.202 58.586 24.776 C 57.53 25.368 56.354 25.664 55.058 25.664 Z M 55.058 22.424 C 55.714 22.424 56.282 22.272 56.762 21.968 C 57.258 21.664 57.642 21.24 57.914 20.696 C 58.202 20.152 58.346 19.528 58.346 18.824 C 58.346 18.12 58.202 17.504 57.914 16.976 C 57.659 16.451 57.259 16.01 56.762 15.704 C 56.282 15.384 55.714 15.224 55.058 15.224 C 54.402 15.224 53.826 15.384 53.33 15.704 C 52.829 16.013 52.423 16.453 52.154 16.976 C 51.882 17.504 51.746 18.12 51.746 18.824 C 51.746 19.528 51.882 20.152 52.154 20.696 C 52.442 21.24 52.834 21.664 53.33 21.968 C 53.826 22.272 54.402 22.424 55.058 22.424 Z M 70.619 30.656 C 69.66 30.665 68.707 30.494 67.811 30.152 C 66.979 29.836 66.219 29.354 65.579 28.736 C 64.974 28.149 64.521 27.425 64.259 26.624 L 67.595 25.448 C 67.763 26.046 68.148 26.559 68.675 26.888 C 69.219 27.24 69.867 27.416 70.619 27.416 C 71.211 27.416 71.723 27.304 72.155 27.08 C 72.587 26.872 72.915 26.56 73.139 26.144 C 73.379 25.728 73.499 25.24 73.499 24.68 L 73.499 21.68 L 74.195 22.544 C 73.747 23.28 73.171 23.832 72.467 24.2 C 71.763 24.552 70.939 24.728 69.995 24.728 C 68.779 24.728 67.691 24.456 66.731 23.912 C 65.788 23.369 65.008 22.581 64.475 21.632 C 63.931 20.656 63.659 19.552 63.659 18.32 C 63.659 17.088 63.931 16 64.475 15.056 C 65 14.115 65.772 13.335 66.707 12.8 C 67.651 12.256 68.723 11.984 69.923 11.984 C 70.867 11.984 71.691 12.176 72.395 12.56 C 73.099 12.928 73.699 13.496 74.195 14.264 L 73.739 15.128 L 73.739 12.272 L 77.099 12.272 L 77.099 24.68 C 77.099 25.832 76.819 26.856 76.259 27.752 C 75.701 28.662 74.904 29.401 73.955 29.888 C 72.995 30.4 71.883 30.656 70.619 30.656 Z M 70.499 21.464 C 71.107 21.464 71.635 21.336 72.083 21.08 C 72.526 20.829 72.885 20.454 73.115 20 C 73.371 19.536 73.499 18.992 73.499 18.368 C 73.499 17.744 73.371 17.2 73.115 16.736 C 72.876 16.274 72.51 15.891 72.059 15.632 C 71.611 15.36 71.091 15.224 70.499 15.224 C 69.891 15.224 69.347 15.36 68.867 15.632 C 68.402 15.889 68.02 16.271 67.763 16.736 C 67.507 17.2 67.379 17.744 67.379 18.368 C 67.379 18.976 67.507 19.512 67.763 19.976 C 68.035 20.44 68.403 20.808 68.867 21.08 C 69.347 21.336 69.891 21.464 70.499 21.464 Z M 86.254 25.664 C 84.958 25.664 83.774 25.368 82.702 24.776 C 81.661 24.198 80.785 23.364 80.158 22.352 C 79.534 21.312 79.222 20.136 79.222 18.824 C 79.222 17.496 79.534 16.32 80.158 15.296 C 80.785 14.284 81.661 13.45 82.702 12.872 C 83.774 12.28 84.958 11.984 86.254 11.984 C 87.55 11.984 88.726 12.28 89.782 12.872 C 90.819 13.446 91.688 14.282 92.302 15.296 C 92.942 16.32 93.262 17.496 93.262 18.824 C 93.262 20.136 92.942 21.312 92.302 22.352 C 91.688 23.366 90.819 24.202 89.782 24.776 C 88.726 25.368 87.55 25.664 86.254 25.664 Z M 86.254 22.424 C 86.91 22.424 87.478 22.272 87.958 21.968 C 88.454 21.664 88.838 21.24 89.11 20.696 C 89.398 20.152 89.542 19.528 89.542 18.824 C 89.542 18.12 89.398 17.504 89.11 16.976 C 88.855 16.451 88.455 16.01 87.958 15.704 C 87.478 15.384 86.91 15.224 86.254 15.224 C 85.598 15.224 85.022 15.384 84.526 15.704 C 84.025 16.013 83.619 16.453 83.35 16.976 C 83.078 17.504 82.942 18.12 82.942 18.824 C 82.942 19.528 83.078 20.152 83.35 20.696 C 83.638 21.24 84.03 21.664 84.526 21.968 C 85.022 22.272 85.598 22.424 86.254 22.424 Z M 95.382 25.376 L 95.382 12.272 L 98.982 12.272 L 98.982 25.376 Z M 95.382 11.096 L 95.382 7.496 L 98.982 7.496 L 98.982 11.096 Z M 101.617 30.176 L 101.617 12.272 L 104.977 12.272 L 104.977 14.768 L 104.665 14.048 C 105.098 13.391 105.704 12.868 106.417 12.536 C 107.169 12.168 108.025 11.984 108.985 11.984 C 110.233 11.984 111.361 12.288 112.369 12.896 C 113.37 13.497 114.198 14.349 114.769 15.368 C 115.361 16.392 115.657 17.544 115.657 18.824 C 115.657 20.088 115.361 21.24 114.769 22.28 C 114.211 23.301 113.391 24.154 112.393 24.752 C 111.385 25.36 110.241 25.664 108.961 25.664 C 108.065 25.664 107.233 25.504 106.465 25.184 C 105.737 24.867 105.107 24.362 104.641 23.72 L 105.217 22.976 L 105.217 30.176 Z M 108.529 22.424 C 109.201 22.424 109.793 22.272 110.305 21.968 C 110.816 21.665 111.232 21.224 111.505 20.696 C 111.793 20.152 111.937 19.528 111.937 18.824 C 111.937 18.12 111.793 17.504 111.505 16.976 C 111.232 16.448 110.816 16.007 110.305 15.704 C 109.793 15.384 109.201 15.224 108.529 15.224 C 107.922 15.215 107.324 15.373 106.801 15.68 C 106.3 15.989 105.894 16.429 105.625 16.952 C 105.353 17.496 105.217 18.12 105.217 18.824 C 105.217 19.528 105.353 20.152 105.625 20.696 C 105.913 21.24 106.305 21.664 106.801 21.968 C 107.324 22.275 107.922 22.433 108.529 22.424 Z M 122.901 25.664 C 121.461 25.664 120.205 25.328 119.133 24.656 C 118.077 23.968 117.357 23.048 116.973 21.896 L 119.613 20.648 C 119.949 21.352 120.405 21.904 120.981 22.304 C 121.557 22.704 122.197 22.904 122.901 22.904 C 123.413 22.904 123.805 22.8 124.077 22.592 C 124.349 22.384 124.485 22.096 124.485 21.728 C 124.491 21.556 124.441 21.388 124.341 21.248 C 124.228 21.089 124.08 20.957 123.909 20.864 C 123.682 20.738 123.44 20.641 123.189 20.576 L 120.957 19.952 C 119.885 19.648 119.061 19.16 118.485 18.488 C 117.909 17.8 117.621 16.992 117.621 16.064 C 117.621 15.248 117.829 14.536 118.245 13.928 C 118.661 13.32 119.245 12.848 119.997 12.512 C 120.749 12.16 121.613 11.984 122.589 11.984 C 123.869 11.984 124.989 12.288 125.949 12.896 C 126.91 13.47 127.64 14.361 128.013 15.416 L 125.349 16.664 C 125.159 16.122 124.785 15.664 124.293 15.368 C 123.79 15.03 123.195 14.854 122.589 14.864 C 122.125 14.864 121.757 14.96 121.485 15.152 C 121.233 15.336 121.089 15.633 121.101 15.944 C 121.101 16.12 121.149 16.28 121.245 16.424 C 121.341 16.568 121.493 16.696 121.701 16.808 C 121.925 16.92 122.197 17.024 122.517 17.12 L 124.605 17.744 C 125.693 18.064 126.525 18.552 127.101 19.208 C 127.677 19.848 127.965 20.64 127.965 21.584 C 127.965 22.4 127.749 23.112 127.317 23.72 C 126.901 24.328 126.317 24.808 125.565 25.16 C 124.813 25.496 123.925 25.664 122.901 25.664 Z M 134.821 25.664 C 133.765 25.664 132.861 25.44 132.109 24.992 C 131.374 24.529 130.79 23.862 130.429 23.072 C 130.045 22.256 129.853 21.304 129.853 20.216 L 129.853 12.272 L 133.453 12.272 L 133.453 19.928 C 133.453 20.424 133.549 20.864 133.741 21.248 C 133.949 21.616 134.237 21.904 134.605 22.112 C 134.973 22.32 135.389 22.424 135.853 22.424 C 136.333 22.424 136.749 22.32 137.101 22.112 C 137.46 21.913 137.752 21.613 137.941 21.248 C 138.149 20.864 138.253 20.424 138.253 19.928 L 138.253 12.272 L 141.853 12.272 L 141.853 25.376 L 138.493 25.376 L 138.493 22.784 L 138.685 23.36 C 138.381 24.144 137.885 24.728 137.197 25.112 C 136.525 25.48 135.733 25.664 134.821 25.664 Z M 144.484 25.376 L 144.484 12.272 L 147.844 12.272 L 147.844 15.464 L 147.484 14.936 C 147.676 13.928 148.14 13.184 148.876 12.704 C 149.612 12.224 150.492 11.984 151.516 11.984 C 152.604 11.984 153.556 12.264 154.372 12.824 C 155.204 13.368 155.724 14.104 155.932 15.032 L 154.9 15.128 C 155.332 14.056 155.948 13.264 156.748 12.752 C 157.548 12.24 158.484 11.984 159.556 11.984 C 160.5 11.984 161.332 12.192 162.052 12.608 C 162.782 13.018 163.381 13.625 163.78 14.36 C 164.196 15.096 164.404 15.96 164.404 16.952 L 164.404 25.376 L 160.804 25.376 L 160.804 17.72 C 160.804 17.208 160.708 16.768 160.516 16.4 C 160.35 16.043 160.083 15.743 159.748 15.536 C 159.412 15.328 159.004 15.224 158.524 15.224 C 158.095 15.215 157.672 15.323 157.3 15.536 C 156.964 15.744 156.7 16.032 156.508 16.4 C 156.332 16.768 156.244 17.208 156.244 17.72 L 156.244 25.376 L 152.644 25.376 L 152.644 17.72 C 152.644 17.208 152.548 16.768 152.356 16.4 C 152.19 16.043 151.923 15.743 151.588 15.536 C 151.252 15.328 150.844 15.224 150.364 15.224 C 149.935 15.215 149.512 15.323 149.14 15.536 C 148.804 15.744 148.54 16.032 148.348 16.4 C 148.172 16.768 148.084 17.208 148.084 17.72 L 148.084 25.376 Z M 16.478 0.376 C 16.393 0.38 16.309 0.403 16.234 0.443 C 16.234 0.443 9.236 3.997 0.51 5.182 C 0.214 5.226 -0.004 5.481 0 5.78 L 0 18.375 C 0 26.09 4.149 30.666 8.24 33.21 C 12.33 35.755 16.413 36.368 16.413 36.368 C 16.471 36.377 16.529 36.377 16.587 36.368 C 16.587 36.368 20.67 35.755 24.76 33.21 C 28.851 30.666 33 26.09 33 18.375 L 33 5.78 C 33.004 5.481 32.787 5.226 32.491 5.182 C 23.764 3.997 16.766 0.443 16.766 0.443 C 16.677 0.396 16.578 0.373 16.478 0.376 Z M 16.5 7.578 C 22.351 7.578 27.105 12.418 27.105 18.374 C 27.105 24.331 22.351 29.177 16.5 29.177 C 10.649 29.177 5.895 24.331 5.895 18.374 C 5.895 12.417 10.649 7.578 16.5 7.578 Z M 14.142 12.976 L 14.142 15.979 L 11.198 15.979 C 11.04 15.98 10.889 16.043 10.778 16.155 C 10.667 16.268 10.605 16.419 10.606 16.577 L 10.606 20.177 C 10.604 20.505 10.869 20.773 11.197 20.775 L 14.142 20.775 L 14.142 23.779 C 14.142 24.11 14.409 24.379 14.734 24.376 L 18.265 24.376 C 18.593 24.374 18.858 24.107 18.857 23.779 L 18.857 20.775 L 21.802 20.775 C 22.13 20.773 22.395 20.506 22.394 20.178 L 22.394 16.577 C 22.395 16.419 22.333 16.268 22.222 16.155 C 22.111 16.043 21.96 15.98 21.802 15.979 L 18.857 15.979 L 18.857 12.976 C 18.858 12.648 18.594 12.381 18.266 12.379 L 14.704 12.379 C 14.388 12.399 14.142 12.66 14.142 12.976 Z" fill="rgb(99,99,99)"></path></svg>