<svg xmlns="http://www.w3.org/2000/svg" width="170" height="35" fill="none"><path d="M 47.584 25.376 L 47.584 7.208 L 50.296 7.208 L 50.296 25.376 Z M 59.731 25.664 C 58.483 25.664 57.339 25.368 56.299 24.776 C 55.286 24.195 54.442 23.359 53.851 22.352 C 53.243 21.328 52.939 20.168 52.939 18.872 C 52.939 17.56 53.243 16.4 53.851 15.392 C 54.438 14.388 55.284 13.56 56.299 12.992 C 57.323 12.4 58.467 12.104 59.731 12.104 C 61.011 12.104 62.155 12.4 63.163 12.992 C 64.175 13.556 65.013 14.386 65.587 15.392 C 66.195 16.4 66.499 17.56 66.499 18.872 C 66.499 20.184 66.195 21.352 65.587 22.376 C 64.996 23.383 64.152 24.219 63.139 24.8 C 62.115 25.376 60.979 25.664 59.731 25.664 Z M 59.731 23.144 C 60.499 23.144 61.179 22.96 61.771 22.592 C 62.363 22.223 62.845 21.701 63.163 21.08 C 63.515 20.424 63.691 19.688 63.691 18.872 C 63.691 18.056 63.515 17.328 63.163 16.688 C 62.845 16.067 62.363 15.545 61.771 15.176 C 61.179 14.808 60.499 14.624 59.731 14.624 C 58.979 14.624 58.299 14.808 57.691 15.176 C 57.095 15.548 56.607 16.069 56.275 16.688 C 55.939 17.328 55.771 18.056 55.771 18.872 C 55.771 19.688 55.939 20.424 56.275 21.08 C 56.627 21.72 57.099 22.224 57.691 22.592 C 58.306 22.962 59.013 23.153 59.731 23.144 Z M 75.411 30.656 C 74.518 30.665 73.631 30.511 72.794 30.2 C 72.029 29.917 71.327 29.485 70.731 28.928 C 70.162 28.411 69.719 27.77 69.435 27.056 L 71.93 26.024 C 72.154 26.632 72.562 27.136 73.154 27.536 C 73.763 27.936 74.507 28.136 75.387 28.136 C 76.075 28.136 76.69 28 77.234 27.728 C 77.77 27.48 78.221 27.079 78.531 26.576 C 78.851 26.08 79.011 25.48 79.011 24.776 L 79.011 21.848 L 79.491 22.4 C 79.07 23.205 78.418 23.865 77.618 24.296 C 76.835 24.728 75.947 24.944 74.955 24.944 C 73.755 24.944 72.675 24.664 71.715 24.104 C 70.764 23.553 69.976 22.757 69.435 21.8 C 68.891 20.824 68.618 19.728 68.618 18.512 C 68.618 17.28 68.891 16.184 69.435 15.224 C 69.977 14.282 70.754 13.496 71.69 12.944 C 72.635 12.384 73.715 12.104 74.93 12.104 C 75.922 12.104 76.802 12.32 77.57 12.752 C 78.355 13.168 78.995 13.776 79.49 14.576 L 79.13 15.248 L 79.13 12.392 L 81.7 12.392 L 81.7 24.776 C 81.7 25.896 81.428 26.896 80.883 27.776 C 80.356 28.671 79.592 29.402 78.675 29.888 C 77.731 30.4 76.643 30.656 75.411 30.656 Z M 75.266 22.424 C 75.986 22.424 76.626 22.256 77.186 21.92 C 77.746 21.568 78.186 21.104 78.506 20.528 C 78.843 19.936 79.01 19.272 79.01 18.536 C 79.01 17.8 78.842 17.136 78.506 16.544 C 78.188 15.97 77.724 15.49 77.162 15.152 C 76.594 14.798 75.936 14.614 75.266 14.624 C 74.53 14.624 73.874 14.8 73.298 15.152 C 72.722 15.488 72.266 15.952 71.93 16.544 C 71.61 17.12 71.45 17.784 71.45 18.536 C 71.45 19.256 71.61 19.912 71.93 20.504 C 72.256 21.086 72.728 21.574 73.298 21.92 C 73.874 22.256 74.531 22.424 75.266 22.424 Z M 91.137 25.664 C 89.889 25.664 88.745 25.368 87.705 24.776 C 86.692 24.195 85.848 23.359 85.257 22.352 C 84.649 21.328 84.345 20.168 84.345 18.872 C 84.345 17.56 84.649 16.4 85.257 15.392 C 85.845 14.388 86.69 13.56 87.705 12.992 C 88.729 12.4 89.873 12.104 91.137 12.104 C 92.417 12.104 93.561 12.4 94.569 12.992 C 95.581 13.556 96.419 14.386 96.993 15.392 C 97.601 16.4 97.905 17.56 97.905 18.872 C 97.905 20.184 97.601 21.352 96.993 22.376 C 96.402 23.383 95.558 24.219 94.545 24.8 C 93.521 25.376 92.385 25.664 91.137 25.664 Z M 91.137 23.144 C 91.905 23.144 92.585 22.96 93.177 22.592 C 93.769 22.223 94.251 21.701 94.569 21.08 C 94.921 20.424 95.097 19.688 95.097 18.872 C 95.097 18.056 94.921 17.328 94.569 16.688 C 94.251 16.067 93.769 15.545 93.177 15.176 C 92.585 14.808 91.905 14.624 91.137 14.624 C 90.385 14.624 89.705 14.808 89.097 15.176 C 88.501 15.548 88.013 16.069 87.681 16.688 C 87.345 17.328 87.177 18.056 87.177 18.872 C 87.177 19.688 87.345 20.424 87.681 21.08 C 88.033 21.72 88.505 22.224 89.097 22.592 C 89.712 22.962 90.419 23.153 91.137 23.144 Z M 100.553 25.376 L 100.553 12.392 L 103.265 12.392 L 103.265 25.376 Z M 100.553 10.616 L 100.553 7.496 L 103.265 7.496 L 103.265 10.616 Z M 106.436 30.176 L 106.436 12.392 L 109.028 12.392 L 109.028 15.08 L 108.716 14.456 C 109.194 13.722 109.856 13.126 110.636 12.728 C 111.436 12.312 112.348 12.104 113.372 12.104 C 114.604 12.104 115.708 12.4 116.684 12.992 C 117.666 13.573 118.471 14.411 119.012 15.416 C 119.588 16.44 119.876 17.592 119.876 18.872 C 119.876 20.152 119.588 21.304 119.012 22.328 C 118.471 23.331 117.677 24.176 116.708 24.776 C 115.732 25.368 114.62 25.664 113.372 25.664 C 112.364 25.664 111.444 25.456 110.612 25.04 C 109.815 24.642 109.155 24.015 108.716 23.24 L 109.148 22.736 L 109.148 30.176 Z M 113.108 23.144 C 113.876 23.144 114.556 22.96 115.148 22.592 C 115.74 22.223 116.222 21.701 116.54 21.08 C 116.892 20.424 117.068 19.688 117.068 18.872 C 117.068 18.056 116.892 17.328 116.54 16.688 C 116.222 16.067 115.74 15.545 115.148 15.176 C 114.556 14.808 113.876 14.624 113.108 14.624 C 112.356 14.624 111.676 14.808 111.068 15.176 C 110.472 15.548 109.984 16.069 109.652 16.688 C 109.316 17.328 109.148 18.056 109.148 18.872 C 109.148 19.688 109.316 20.424 109.652 21.08 C 110.004 21.72 110.476 22.224 111.068 22.592 C 111.683 22.962 112.39 23.153 113.108 23.144 Z M 127.314 25.664 C 125.986 25.664 124.818 25.336 123.81 24.68 C 122.842 24.054 122.108 23.126 121.722 22.04 L 123.81 21.056 C 124.162 21.792 124.642 22.376 125.25 22.808 C 125.854 23.234 126.575 23.46 127.314 23.456 C 127.954 23.456 128.474 23.312 128.874 23.024 C 129.274 22.736 129.474 22.344 129.474 21.848 C 129.474 21.528 129.386 21.272 129.21 21.08 C 129.025 20.865 128.796 20.693 128.538 20.576 C 128.286 20.449 128.02 20.353 127.746 20.288 L 125.706 19.712 C 124.586 19.392 123.746 18.912 123.186 18.272 C 122.649 17.635 122.359 16.825 122.37 15.992 C 122.37 15.208 122.57 14.528 122.97 13.952 C 123.37 13.36 123.922 12.904 124.626 12.584 C 125.33 12.264 126.122 12.104 127.002 12.104 C 128.186 12.104 129.242 12.4 130.17 12.992 C 131.084 13.551 131.779 14.407 132.138 15.416 L 130.05 16.4 C 129.805 15.79 129.378 15.27 128.826 14.912 C 128.281 14.544 127.636 14.351 126.978 14.36 C 126.386 14.36 125.914 14.504 125.562 14.792 C 125.22 15.044 125.023 15.447 125.034 15.872 C 125.034 16.176 125.114 16.432 125.274 16.64 C 125.434 16.832 125.642 16.992 125.898 17.12 C 126.154 17.232 126.418 17.328 126.69 17.408 L 128.802 18.032 C 129.874 18.336 130.698 18.816 131.274 19.472 C 131.85 20.112 132.138 20.88 132.138 21.776 C 132.138 22.544 131.93 23.224 131.514 23.816 C 131.114 24.392 130.554 24.848 129.834 25.184 C 129.114 25.504 128.274 25.664 127.314 25.664 Z M 139.427 25.664 C 138.451 25.664 137.595 25.448 136.859 25.016 C 136.125 24.57 135.527 23.931 135.131 23.168 C 134.731 22.368 134.531 21.448 134.531 20.408 L 134.531 12.392 L 137.243 12.392 L 137.243 20.168 C 137.243 20.76 137.363 21.28 137.603 21.728 C 137.843 22.176 138.179 22.528 138.611 22.784 C 139.043 23.024 139.539 23.144 140.099 23.144 C 140.675 23.144 141.179 23.016 141.611 22.76 C 142.043 22.504 142.393 22.129 142.619 21.68 C 142.875 21.216 143.003 20.672 143.003 20.048 L 143.003 12.392 L 145.691 12.392 L 145.691 25.376 L 143.123 25.376 L 143.123 22.832 L 143.411 23.168 C 143.107 23.968 142.603 24.584 141.899 25.016 C 141.195 25.448 140.371 25.664 139.427 25.664 Z M 148.857 25.376 L 148.857 12.392 L 151.449 12.392 L 151.449 15.2 L 151.113 14.768 C 151.385 13.888 151.881 13.224 152.601 12.776 C 153.321 12.328 154.145 12.104 155.073 12.104 C 156.113 12.104 157.033 12.384 157.833 12.944 C 158.649 13.488 159.193 14.216 159.465 15.128 L 158.697 15.2 C 159.081 14.16 159.665 13.384 160.449 12.872 C 161.249 12.36 162.161 12.104 163.185 12.104 C 164.081 12.104 164.889 12.312 165.609 12.728 C 166.345 13.144 166.929 13.72 167.361 14.456 C 167.793 15.192 168.009 16.032 168.009 16.976 L 168.009 25.376 L 165.297 25.376 L 165.297 17.72 C 165.297 17.064 165.177 16.512 164.937 16.064 C 164.733 15.622 164.398 15.253 163.977 15.008 C 163.577 14.752 163.105 14.624 162.561 14.624 C 162.017 14.624 161.537 14.752 161.121 15.008 C 160.705 15.248 160.377 15.6 160.137 16.064 C 159.897 16.528 159.777 17.08 159.777 17.72 L 159.777 25.376 L 157.089 25.376 L 157.089 17.72 C 157.089 17.064 156.969 16.512 156.729 16.064 C 156.525 15.622 156.19 15.253 155.769 15.008 C 155.369 14.752 154.889 14.624 154.329 14.624 C 153.785 14.624 153.305 14.752 152.889 15.008 C 152.473 15.248 152.145 15.6 151.905 16.064 C 151.681 16.528 151.569 17.08 151.569 17.72 L 151.569 25.376 Z M 20.54 19.04 C 20.131 19.04 19.8 18.709 19.8 18.3 L 19.8 14.915 L 16.2 14.915 L 16.2 18.3 C 16.2 18.709 15.869 19.04 15.46 19.04 L 12.074 19.04 L 12.074 22.633 L 15.459 22.633 C 15.655 22.633 15.844 22.711 15.983 22.849 C 16.122 22.988 16.2 23.177 16.2 23.373 L 16.2 26.759 L 19.793 26.759 L 19.793 23.374 C 19.793 22.964 20.124 22.634 20.533 22.634 L 23.926 22.634 L 23.926 19.04 Z" fill="rgb(99,99,99)"></path><path d="M 30.889 7.885 L 5.11 7.885 C 2.756 7.885 0 9.225 0 12.996 L 0 29.092 C 0 32.862 2.756 34.203 5.111 34.203 L 30.89 34.203 C 33.245 34.203 36.001 32.863 36.001 29.093 L 36.001 12.995 C 36.001 9.225 33.253 7.884 30.89 7.884 Z M 25.407 23.011 C 25.407 23.621 24.913 24.115 24.304 24.115 L 21.282 24.115 L 21.282 27.137 C 21.282 27.747 20.787 28.241 20.178 28.241 L 15.822 28.241 C 15.212 28.241 14.719 27.746 14.719 27.137 L 14.719 24.115 L 11.704 24.115 C 11.411 24.117 11.13 24.002 10.921 23.797 C 10.713 23.591 10.595 23.311 10.593 23.018 L 10.593 18.663 C 10.593 18.053 11.087 17.559 11.696 17.559 L 14.719 17.559 L 14.719 14.537 C 14.719 13.927 15.213 13.433 15.822 13.433 L 20.17 13.433 C 20.78 13.433 21.274 13.927 21.274 14.537 L 21.274 17.559 L 24.296 17.559 C 24.905 17.555 25.403 18.046 25.407 18.655 Z M 22.762 1.004 C 22.681 0.999 22.599 0.999 22.518 1.004 L 13.481 1.004 C 12.868 0.969 12.269 1.198 11.835 1.632 C 11.401 2.066 11.172 2.665 11.207 3.278 L 11.207 6.61 L 12.689 6.61 L 12.696 3.277 C 12.696 3.062 12.696 2.484 13.489 2.484 L 22.519 2.484 C 23.311 2.484 23.311 3.054 23.311 3.277 L 23.311 6.61 L 24.793 6.61 L 24.793 3.278 C 24.86 2.09 23.951 1.072 22.763 1.004 Z" fill="rgb(99,99,99)"></path></svg>