<svg width="23" height="23" viewBox="0 0 23 23" fill="none" xmlns="http://www.w3.org/2000/svg">
<path d="M2.12012 12.9377C3.88393 15.5827 6.86962 18.5023 11.4998 21.5627C16.13 18.5023 19.1157 15.5827 20.8795 12.9377H17.2498C17.1063 12.9377 16.966 12.8947 16.8471 12.8142C16.7283 12.7338 16.6362 12.6196 16.5828 12.4864L14.4884 7.25098L12.1912 15.2909C12.1502 15.4351 12.065 15.5628 11.9478 15.6562C11.8305 15.7496 11.6869 15.804 11.5372 15.8118C11.3875 15.8196 11.2391 15.7803 11.1128 15.6995C10.9865 15.6188 10.8886 15.5005 10.8328 15.3614L8.46524 9.44173L6.3478 12.6186C6.28207 12.7169 6.1931 12.7974 6.08879 12.8531C5.98447 12.9088 5.86804 12.9378 5.7498 12.9377H2.12012Z" fill="#1373EB"/>
<path d="M1.2647 11.5004C-3.48912 2.41544 6.33907 -2.87456 11.2453 1.6435C11.3315 1.72304 11.4158 1.80498 11.4983 1.88931C11.5792 1.80445 11.6636 1.72292 11.7513 1.64494C16.6603 -2.87456 26.4871 2.41544 21.7347 11.5004H17.7341L15.0403 4.76431C14.9845 4.62514 14.8866 4.50689 14.7603 4.42612C14.634 4.34535 14.4856 4.3061 14.3359 4.31386C14.1861 4.32162 14.0426 4.37601 13.9253 4.46942C13.808 4.56282 13.7229 4.69056 13.6818 4.83475L11.3861 12.8747L9.2917 7.63931C9.24292 7.51786 9.1619 7.41204 9.05739 7.33325C8.95289 7.25447 8.82885 7.20572 8.69866 7.19225C8.56848 7.17879 8.43709 7.20113 8.31867 7.25686C8.20025 7.31259 8.0993 7.3996 8.0267 7.5085L5.36445 11.5004H1.2647Z" fill="#1373EB"/>
</svg>
