<svg width="23" height="23" viewBox="0 0 23 23" fill="none" xmlns="http://www.w3.org/2000/svg">
<path d="M9.98771 2.98303C9.02826 2.7945 8.03718 2.8447 7.10169 3.12921C6.1662 3.41372 5.31499 3.92381 4.62296 4.61459C3.88458 5.3497 3.35267 6.26618 3.08066 7.27196C2.80865 8.27775 2.80612 9.3374 3.07333 10.3445C3.34085 10.1136 3.66269 9.95446 4.0086 9.88212C4.35451 9.80977 4.71313 9.82657 5.05076 9.93092C5.3884 10.0353 5.69396 10.2238 5.93873 10.4787C6.1835 10.7336 6.35944 11.0465 6.45002 11.3881C6.73229 11.3473 7.01993 11.365 7.29508 11.44C7.57023 11.5151 7.827 11.6459 8.04945 11.8244C8.27189 12.0029 8.45525 12.2252 8.58813 12.4776C8.72102 12.7299 8.80059 13.0069 8.8219 13.2913C9.31954 13.3258 9.78803 13.5387 10.1412 13.8911C10.4943 14.2434 10.7083 14.7114 10.7438 15.209C11.1408 15.2369 11.5213 15.3783 11.84 15.6165C12.1588 15.8547 12.4023 16.1795 12.5416 16.5523C12.6808 16.925 12.7099 17.3299 12.6254 17.7188C12.5409 18.1076 12.3463 18.4639 12.0649 18.7452L11.7271 19.0816L12.7204 20.0203C12.853 20.1459 13.0294 20.2147 13.2121 20.212C13.3947 20.2093 13.569 20.1353 13.6979 20.0059C13.8173 19.8862 13.8897 19.7276 13.9019 19.5589C13.914 19.3903 13.8651 19.2229 13.764 19.0873L13.7094 19.0327L13.6418 18.9551L13.4966 18.8085C13.4295 18.7417 13.3762 18.6623 13.3398 18.5748C13.3035 18.4874 13.2848 18.3936 13.2848 18.2989C13.2848 18.2042 13.3035 18.1104 13.3398 18.0229C13.3762 17.9355 13.4295 17.8561 13.4966 17.7893C13.6313 17.6554 13.8135 17.5803 14.0034 17.5803C14.1932 17.5803 14.3754 17.6554 14.5101 17.7893L14.7113 17.9905C14.7545 18.0337 14.7947 18.0777 14.8321 18.1228L14.9399 18.232C15.0028 18.2959 15.0777 18.3467 15.1604 18.3813C15.2431 18.4159 15.3318 18.4338 15.4215 18.4338C15.5111 18.4338 15.5998 18.4159 15.6825 18.3813C15.7652 18.3467 15.8401 18.2959 15.903 18.232C16.0309 18.1035 16.1027 17.9296 16.1027 17.7483C16.1027 17.567 16.0309 17.3931 15.903 17.2646L15.6874 17.049C15.6184 16.9799 15.5642 16.8975 15.5282 16.8068C15.4921 16.7161 15.4748 16.619 15.4775 16.5214C15.4773 16.3794 15.5191 16.2405 15.5977 16.1223C15.6763 16.004 15.7881 15.9117 15.9192 15.8569C16.0502 15.8022 16.1945 15.7875 16.3339 15.8147C16.4732 15.8418 16.6014 15.9097 16.7023 16.0097L16.8647 16.1735C16.9347 16.2439 17.0179 16.2997 17.1096 16.3378C17.2012 16.3759 17.2995 16.3956 17.3987 16.3956C17.498 16.3956 17.5963 16.3759 17.6879 16.3378C17.7796 16.2997 17.8628 16.2439 17.9328 16.1735C18.0737 16.0309 18.1527 15.8385 18.1527 15.6381C18.1527 15.4376 18.0737 15.2452 17.9328 15.1026L17.8968 15.0652L17.766 14.943L16.652 13.8247C16.585 13.7579 16.5319 13.6786 16.4957 13.5913C16.4594 13.5039 16.4408 13.4103 16.4408 13.3158C16.4408 13.2212 16.4594 13.1276 16.4957 13.0403C16.5319 12.953 16.585 12.8737 16.652 12.8069C16.7867 12.6726 16.9692 12.5972 17.1594 12.5972C17.3496 12.5972 17.5321 12.6726 17.6668 12.8069L18.7133 13.8563L18.7838 13.9195L18.87 14.0058C19.0927 14.1872 19.3749 14.2794 19.6618 14.2645C19.9486 14.2497 20.2198 14.1288 20.4225 13.9253C20.6405 13.7063 20.7628 13.4099 20.7628 13.1009C20.7628 12.7919 20.6405 12.4955 20.4225 12.2765L19.3616 11.2113L19.32 11.1725L15.019 6.79959H13.9178L11.4568 8.67122C10.2666 9.57684 8.56746 9.34684 7.6604 8.15659C7.44422 7.87398 7.28598 7.55147 7.19476 7.20756C7.10353 6.86364 7.08112 6.5051 7.1288 6.15251C7.17648 5.79991 7.29332 5.4602 7.47261 5.15287C7.6519 4.84554 7.89011 4.57663 8.17358 4.36159L9.98771 2.98303ZM15.3208 5.36209C15.4162 5.3623 15.5105 5.38147 15.5984 5.41848C15.6862 5.4555 15.7658 5.50963 15.8326 5.57772L19.7081 9.51647C19.9842 8.97045 20.1469 8.37417 20.1864 7.76358C20.2259 7.15299 20.1413 6.54072 19.9378 5.96368C19.7343 5.38665 19.4161 4.85679 19.0024 4.40604C18.5886 3.95529 18.0878 3.59299 17.5303 3.34097L17.48 3.31509C17.0124 3.05753 16.4872 2.92252 15.9533 2.92265H12.4315L12.361 2.98303L9.04471 5.50584C8.91146 5.60643 8.79944 5.7324 8.71511 5.87648C8.63078 6.02057 8.5758 6.17993 8.55335 6.34536C8.5309 6.5108 8.54142 6.67904 8.5843 6.84039C8.62719 7.00174 8.70159 7.15301 8.80321 7.28547C9.00786 7.5539 9.3107 7.73012 9.6452 7.7754C9.9797 7.82068 10.3185 7.73133 10.5871 7.52697L13.2408 5.50872C13.3656 5.41379 13.5181 5.36229 13.6749 5.36209H15.3208ZM9.12377 15.8113L8.17933 16.7528C8.05914 16.8728 7.8963 16.9401 7.72652 16.9401C7.55674 16.9401 7.3939 16.8728 7.27371 16.7528C7.15649 16.6363 7.08916 16.4788 7.08594 16.3136C7.08272 16.1483 7.14387 15.9883 7.25646 15.8673L7.27514 15.8487L8.21815 14.9071L8.2354 14.8913C8.357 14.779 8.51726 14.7179 8.68276 14.7209C8.84826 14.7238 9.00624 14.7905 9.12377 14.9071C9.18344 14.9663 9.23081 15.0367 9.26313 15.1143C9.29545 15.1919 9.31209 15.2751 9.31209 15.3592C9.31209 15.4432 9.29545 15.5265 9.26313 15.6041C9.23081 15.6817 9.18344 15.7521 9.12377 15.8113ZM9.19708 18.6705C9.31727 18.7904 9.48012 18.8577 9.64989 18.8577C9.81967 18.8577 9.98252 18.7904 10.1027 18.6705L11.0471 17.7289C11.1144 17.662 11.1659 17.5809 11.1978 17.4916C11.2298 17.4023 11.2413 17.3069 11.2317 17.2126C11.222 17.1182 11.1914 17.0272 11.1421 16.9461C11.0928 16.8651 11.0259 16.7961 10.9465 16.7442C10.8234 16.6633 10.6761 16.6272 10.5295 16.6421C10.3828 16.6571 10.2458 16.7221 10.1415 16.8262L9.19708 17.7677C9.13762 17.8269 9.09044 17.8972 9.05825 17.9747C9.02605 18.0521 9.00948 18.1352 9.00948 18.2191C9.00948 18.303 9.02605 18.386 9.05825 18.4635C9.09044 18.541 9.13762 18.6113 9.19708 18.6705ZM4.90615 12.3498L3.96314 13.2913C3.84295 13.4113 3.68011 13.4786 3.51033 13.4786C3.34056 13.4786 3.17771 13.4113 3.05752 13.2913C2.9403 13.1748 2.87297 13.0173 2.86975 12.8521C2.86653 12.6868 2.92768 12.5268 3.04027 12.4058L3.05896 12.3872L4.00196 11.4456L4.01921 11.4298C4.14076 11.3178 4.30088 11.257 4.46614 11.2602C4.6314 11.2635 4.78904 11.3304 4.90615 11.447C4.9656 11.5062 5.01278 11.5765 5.04498 11.654C5.07717 11.7315 5.09375 11.8145 5.09375 11.8984C5.09375 11.9823 5.07717 12.0653 5.04498 12.1428C5.01278 12.2203 4.9656 12.2906 4.90615 12.3498ZM7.02933 13.9497L6.08633 14.8898C5.96614 15.0098 5.8033 15.0771 5.63352 15.0771C5.46374 15.0771 5.3009 15.0098 5.18071 14.8898C5.06391 14.7734 4.99685 14.6162 4.99363 14.4513C4.99041 14.2864 5.05129 14.1267 5.16346 14.0058L5.18215 13.9871L6.12515 13.0455L6.14239 13.0283C6.26395 12.9163 6.42407 12.8555 6.58933 12.8587C6.75459 12.862 6.91223 12.9289 7.02933 13.0455C7.08901 13.1047 7.13637 13.1752 7.16869 13.2527C7.20102 13.3303 7.21766 13.4136 7.21766 13.4976C7.21766 13.5817 7.20102 13.6649 7.16869 13.7425C7.13637 13.8201 7.08901 13.8905 7.02933 13.9497Z" fill="white"/>
</svg>
